<svg width="183" height="182" viewBox="0 0 183 182" fill="none" xmlns="http://www.w3.org/2000/svg">
<path d="M83.5408 3.5315C87.8443 -1.08149 95.1557 -1.08149 99.4592 3.5315C102.821 7.13531 108.185 8.03041 112.535 5.71352C118.104 2.74784 125.019 5.12183 127.591 10.8822C129.601 15.3824 134.384 17.9707 139.25 17.1918C145.48 16.1948 151.25 20.6856 151.812 26.9691C152.252 31.8781 155.935 35.8791 160.791 36.7226C167.007 37.8023 171.006 43.9231 169.498 50.049C168.319 54.8347 170.504 59.8148 174.823 62.1894C180.351 65.2288 182.146 72.3164 178.731 77.6207C176.062 81.7645 176.511 87.1842 179.825 90.8324C184.067 95.5021 183.463 102.788 178.511 106.696C174.642 109.749 173.307 115.021 175.256 119.548C177.752 125.342 174.815 132.037 168.862 134.125C164.211 135.757 161.237 140.309 161.611 145.224C162.09 151.514 157.139 156.893 150.83 156.935C145.901 156.968 141.61 160.308 140.368 165.078C138.779 171.183 132.349 174.663 126.368 172.654C121.696 171.085 116.553 172.851 113.83 176.959C110.344 182.217 103.133 183.421 98.1285 179.579C94.2191 176.577 88.7809 176.577 84.8715 179.579C79.8674 183.421 72.6558 182.217 69.1702 176.959C66.4472 172.851 61.3036 171.085 56.6315 172.654C50.6511 174.663 44.221 171.183 42.6317 165.078C41.3901 160.308 37.0986 156.968 32.1701 156.935C25.8615 156.893 20.9097 151.514 21.3888 145.224C21.7632 140.309 18.7888 135.757 14.138 134.125C8.18481 132.037 5.24788 125.342 7.74362 119.548C9.69337 115.021 8.35837 109.749 4.48922 106.696C-0.463389 102.788 -1.06715 95.5021 3.17469 90.8324C6.48856 87.1842 6.93764 81.7645 4.26944 77.6207C0.854072 72.3164 2.6489 65.2288 8.17718 62.1894C12.4961 59.8148 14.6806 54.8347 13.5024 50.049C11.9944 43.9231 15.9933 37.8023 22.209 36.7226C27.0649 35.8791 30.7481 31.8781 31.1877 26.9691C31.7504 20.6856 37.5201 16.1948 43.7496 17.1918C48.6162 17.9707 53.399 15.3824 55.4087 10.8822C57.9813 5.12183 64.8964 2.74784 70.4646 5.71352C74.8147 8.03041 80.1787 7.13531 83.5408 3.5315Z" fill="#EE64FF"/>
</svg>
